# xmcd
#
# Track frame offsets: 
#        183
#        29988
#        43635
#        57423
#        69273
#        86348
#        101038
#        114735
#        127515
#        139045
#        156668
#        167595
#        179660
#        194948
#        206263
#        218213
#        233953
#        249435
#        261768
#        272620
#        282588
#        291035
#
# Disc length: 4046 seconds
#
# Revision: 0
# Processed by: cddbd v1.5.2PL0 Copyright (c) Steve Scherf et al.
# Submitted via: ExactAudioCopy v0.99pb4
#
DISCID=570fcc16
DTITLE=Ike and Tina Turner - The Hunter and Outta Season
DYEAR=1900
DGENRE=Blues
TTITLE0=The Hunger
TTITLE1=You Dont Love Me
TTITLE2=You Got Me Running
TTITLE3=Bold Soul Siter
TTITLE4=I Smell Trouble
TTITLE5=The Things I Used to Do
TTITLE6=Early in the Morning
TTITLE7=Youre Still My Baby
TTITLE8=I Know
TTITLE9=Ive Been Loving You Too Long
TTITLE10=Mean Old World
TTITLE11=3 OClock in the Morning Blues
TTITLE12=Five Long Years
TTITLE13=Dust my Broom
TTITLE14=Grumbling
TTITLE15=I am a Motherless Child
TTITLE16=Carzy Bout You Baby
TTITLE17=Reconsider Baby
TTITLE18=Honest I Do
TTITLE19=Please Love Me
TTITLE20=My Babe
TTITLE21=Rock Me Baby
EXTD=
EXTT0=
EXTT1=
EXTT2=
EXTT3=
EXTT4=
EXTT5=
EXTT6=
EXTT7=
EXTT8=
EXTT9=
EXTT10=
EXTT11=
EXTT12=
EXTT13=
EXTT14=
EXTT15=
EXTT16=
EXTT17=
EXTT18=
EXTT19=
EXTT20=
EXTT21=
PLAYORDER=
